<svg width="48" height="48" viewBox="0 0 48 48" fill="none" xmlns="http://www.w3.org/2000/svg">
<path d="M9 26.7931C9 29.7939 9.87973 32.7273 11.528 35.2224C13.1762 37.7175 15.5189 39.6622 18.2597 40.8106C21.0006 41.9589 24.0166 42.2594 26.9263 41.674C29.8361 41.0885 32.5088 39.6435 34.6066 37.5216C36.7044 35.3997 38.133 32.6962 38.7118 29.7531C39.2905 26.8099 38.9935 23.7593 37.8582 20.9869C36.7229 18.2145 34.8003 15.8449 32.3335 14.1777C29.8668 12.5105 26.9667 11.6207 24 11.6207H18V19.2069L9 10.1034L18 1V8.58621H24C27.5601 8.58621 31.0402 9.65402 34.0003 11.6546C36.9603 13.6552 39.2674 16.4987 40.6298 19.8256C41.9922 23.1525 42.3487 26.8133 41.6541 30.3451C40.9596 33.8769 39.2453 37.121 36.7279 39.6673C34.2106 42.2136 31.0033 43.9476 27.5116 44.6502C24.02 45.3527 20.4008 44.9921 17.1117 43.6141C13.8226 42.236 11.0114 39.9024 9.03355 36.9083C7.05568 33.9142 6 30.3941 6 26.7931H9Z" fill="white"/>
<path d="M27.8699 23.37H22.6949L22.4999 27.225C22.6177 26.9931 22.7478 26.7678 22.8899 26.55C23.0273 26.3509 23.1942 26.1739 23.3849 26.025C23.5846 25.8748 23.8075 25.7583 24.0449 25.68C24.337 25.5946 24.6405 25.5541 24.9449 25.56C25.4157 25.554 25.8836 25.6354 26.3249 25.8C26.7425 25.957 27.1212 26.2027 27.4349 26.52C27.7606 26.8501 28.0158 27.2431 28.1849 27.675C28.3679 28.1537 28.4595 28.6625 28.4549 29.175C28.4629 29.7232 28.3662 30.268 28.1699 30.78C27.9884 31.2543 27.7071 31.684 27.3449 32.04C26.9648 32.4083 26.5093 32.6897 26.0099 32.865C25.4296 33.08 24.8135 33.1818 24.1949 33.165C23.7198 33.1691 23.2461 33.1137 22.7849 33C22.395 32.8906 22.0216 32.7292 21.6749 32.52C21.3685 32.3363 21.0906 32.1089 20.8499 31.845C20.6223 31.5875 20.4166 31.3116 20.2349 31.02L21.8249 29.805L22.2299 30.42C22.3766 30.6118 22.5481 30.7833 22.7399 30.93C22.9368 31.0722 23.1543 31.1835 23.3849 31.26C23.6502 31.3503 23.9298 31.391 24.2099 31.38C24.4839 31.4017 24.7594 31.3647 25.0181 31.2716C25.2767 31.1785 25.5125 31.0314 25.7099 30.84C26.0624 30.4227 26.2398 29.8851 26.2049 29.34V29.25C26.2255 28.9933 26.1899 28.7352 26.1005 28.4936C26.0111 28.2521 25.87 28.033 25.6872 27.8516C25.5044 27.6703 25.2842 27.5309 25.042 27.4434C24.7998 27.3559 24.5414 27.3223 24.2849 27.345C23.8822 27.3254 23.4821 27.419 23.1299 27.615C22.8601 27.7702 22.617 27.9677 22.4099 28.2L20.6249 27.945L21.0599 21.48H27.8399L27.8699 23.37Z" fill="white"/>
</svg>
