<svg width="48" height="48" viewBox="0 0 48 48" fill="none" xmlns="http://www.w3.org/2000/svg">
<path d="M39 27C39 29.9667 38.1203 32.8668 36.4721 35.3335C34.8238 37.8003 32.4812 39.7229 29.7403 40.8582C26.9994 41.9935 23.9834 42.2906 21.0737 41.7118C18.1639 41.133 15.4912 39.7044 13.3934 37.6066C11.2956 35.5088 9.86701 32.8361 9.28823 29.9264C8.70945 27.0166 9.0065 24.0006 10.1418 21.2597C11.2771 18.5189 13.1997 16.1762 15.6665 14.528C18.1332 12.8797 21.0333 12 24 12H30V19.5L39 10.5L30 1.5V9H24C20.4399 9 16.9598 10.0557 13.9997 12.0335C11.0397 14.0114 8.73255 16.8226 7.37018 20.1117C6.0078 23.4008 5.65134 27.02 6.34587 30.5116C7.04041 34.0033 8.75474 37.2106 11.2721 39.7279C13.7894 42.2453 16.9967 43.9596 20.4884 44.6541C23.98 45.3487 27.5992 44.9922 30.8883 43.6298C34.1774 42.2674 36.9886 39.9603 38.9665 37.0003C40.9443 34.0402 42 30.5601 42 27H39Z" fill="white"/>
<path d="M27.8701 23.37H22.6951L22.5001 27.225C22.6179 26.9931 22.7481 26.7678 22.8901 26.55C23.0275 26.3509 23.1944 26.1739 23.3851 26.025C23.5849 25.8748 23.8078 25.7583 24.0451 25.68C24.3373 25.5946 24.6408 25.5541 24.9451 25.56C25.416 25.554 25.8839 25.6354 26.3251 25.8C26.7428 25.957 27.1214 26.2027 27.4351 26.52C27.7608 26.8501 28.016 27.2431 28.1851 27.675C28.3682 28.1537 28.4598 28.6625 28.4551 29.175C28.4632 29.7232 28.3665 30.268 28.1701 30.78C27.9887 31.2543 27.7073 31.684 27.3451 32.04C26.965 32.4083 26.5095 32.6897 26.0101 32.865C25.4298 33.08 24.8137 33.1818 24.1951 33.165C23.7201 33.1691 23.2464 33.1137 22.7851 33C22.3952 32.8906 22.0218 32.7292 21.6751 32.52C21.3688 32.3363 21.0908 32.1089 20.8501 31.845C20.6226 31.5875 20.4169 31.3116 20.2351 31.02L21.8251 29.805L22.2301 30.42C22.3768 30.6118 22.5483 30.7833 22.7401 30.93C22.937 31.0722 23.1546 31.1835 23.3851 31.26C23.6504 31.3503 23.9301 31.391 24.2101 31.38C24.4841 31.4017 24.7597 31.3647 25.0183 31.2716C25.277 31.1785 25.5128 31.0314 25.7101 30.84C26.0626 30.4227 26.24 29.8851 26.2051 29.34V29.25C26.2257 28.9933 26.1901 28.7352 26.1007 28.4936C26.0113 28.2521 25.8703 28.033 25.6875 27.8516C25.5046 27.6703 25.2845 27.5309 25.0422 27.4434C24.8 27.3559 24.5416 27.3223 24.2851 27.345C23.8825 27.3254 23.4824 27.419 23.1301 27.615C22.8604 27.7702 22.6173 27.9677 22.4101 28.2L20.6251 27.945L21.0601 21.48H27.8401L27.8701 23.37Z" fill="white"/>
</svg>
